<svg xmlns="http://www.w3.org/2000/svg" width="140" height="140" viewBox="0 0 140 140" fill="none">
  
  <path d="M70 39C87.1208 39 101 52.8792 101 70H103C103 51.7746 88.2254 37 70 37V39ZM39 70C39 52.8792 52.8792 39 70 39V37C51.7746 37 37 51.7746 37 70H39ZM70 101C52.8792 101 39 87.1208 39 70H37C37 88.2254 51.7746 103 70 103V101ZM101 70C101 87.1208 87.1208 101 70 101V103C88.2254 103 103 88.2254 103 70H101ZM70 55.963C62.2476 55.963 55.963 62.2476 55.963 70H57.963C57.963 63.3521 63.3521 57.963 70 57.963V55.963ZM84.037 70C84.037 62.2476 77.7524 55.963 70 55.963V57.963C76.6479 57.963 82.037 63.3521 82.037 70H84.037ZM70 84.037C77.7524 84.037 84.037 77.7524 84.037 70H82.037C82.037 76.6479 76.6479 82.037 70 82.037V84.037ZM55.963 70C55.963 77.7524 62.2476 84.037 70 84.037V82.037C63.3521 82.037 57.963 76.6479 57.963 70H55.963Z" fill="#F2B137"/>
  <defs>
    <filter id="filter0_i_0_1747" x="0" y="0" width="140" height="140" filterUnits="userSpaceOnUse" color-interpolation-filters="sRGB">
      <feFlood flood-opacity="0" result="BackgroundImageFix"/>
      <feBlend mode="normal" in="SourceGraphic" in2="BackgroundImageFix" result="shape"/>
      <feColorMatrix in="SourceAlpha" type="matrix" values="0 0 0 0 0 0 0 0 0 0 0 0 0 0 0 0 0 0 127 0" result="hardAlpha"/>
      <feOffset dy="-8"/>
      <feComposite in2="hardAlpha" operator="arithmetic" k2="-1" k3="1"/>
      <feColorMatrix type="matrix" values="0 0 0 0 0.0627451 0 0 0 0 0.129412 0 0 0 0 0.164706 0 0 0 1 0"/>
      <feBlend mode="normal" in2="shape" result="effect1_innerShadow_0_1747"/>
    </filter>
  </defs>
</svg>